<?xml version="1.0" encoding="UTF-8"?>
<svg width="151px" height="27px" viewBox="0 0 151 27" version="1.1" xmlns="http://www.w3.org/2000/svg" xmlns:xlink="http://www.w3.org/1999/xlink">
    <!-- Generator: Sketch 41.2 (35397) - http://www.bohemiancoding.com/sketch -->
    <title>Group 12</title>
    <desc>Created with Sketch.</desc>
    <defs></defs>
    <g id="Page-1" stroke="none" stroke-width="1" fill="none" fill-rule="evenodd">
        <g id="logo">
            <g id="Group-12">
                <g id="Group-15">
                    <path d="M118.785714,20.5938135 C118.27927,19.5129582 117.442535,18.1232871 116.495704,16.7115577 C117.178303,14.8807211 117.684748,12.8513601 118.103115,10.6675912 L117.090226,10.5352416 C116.759936,12.3660781 116.341568,14.0866233 115.813104,15.6968772 C114.910311,14.3733809 113.897422,13.0278263 112.97261,11.8587379 L112.267991,12.3881364 C113.3029,13.6895744 114.403867,15.27777 115.416756,16.7997908 C114.491944,19.2041424 113.258861,21.27762 111.629431,22.7775825 C111.871643,22.9319904 112.31203,23.2849227 112.488185,23.4393306 C113.941461,21.9173099 115.130505,20.0202985 116.077336,17.8144713 C116.870032,19.0717928 117.530612,20.2629395 118.015038,21.2114452 L118.785714,20.5938135 Z M125.413534,21.3879113 C124.88507,20.1305898 123.982277,18.4982777 122.90333,16.8218491 C123.56391,14.9910125 124.048335,12.9616515 124.444683,10.733766 L123.475832,10.6014164 C123.167562,12.4763695 122.771214,14.1969147 122.24275,15.8071685 C121.361976,14.4395557 120.393126,13.0940011 119.468314,11.9028544 L118.697637,12.4101947 C119.732546,13.7557493 120.833512,15.3660031 121.824382,16.9541987 C120.89957,19.3806086 119.644468,21.4320279 117.970999,22.9540486 C118.235231,23.0863983 118.631579,23.4172723 118.829753,23.5716802 C120.349087,22.093776 121.56015,20.1967646 122.462943,17.9688792 C123.343716,19.4247251 124.092374,20.8143963 124.598818,21.9393681 L125.413534,21.3879113 Z M127.879699,7.6897245 L110,7.6897245 L110,26.2407311 L111.056928,26.2407311 L111.056928,8.70440501 L126.822771,8.70440501 L126.822771,24.6745938 C126.822771,25.0716427 126.668636,25.1819341 126.272288,25.2039924 C125.897959,25.2260506 124.55478,25.2481089 123.035446,25.2039924 C123.189581,25.4907499 123.387755,25.9319153 123.453813,26.2407311 C125.391515,26.2407311 126.448443,26.2186729 127.064984,26.0422067 C127.637487,25.8436822 127.879699,25.4907499 127.879699,24.6525356 L127.879699,7.6897245 Z M133.230397,18.7850352 C135.013963,16.7556742 136.77551,14.1969147 138.316864,11.5940386 L137.348013,11.0646401 C136.907626,11.8807962 136.423201,12.6969522 135.894737,13.49105 L132.525779,13.8880989 C133.890977,11.946971 135.234157,9.38821143 136.291085,6.91768499 L135.256176,6.45446128 C134.309345,9.12351217 132.635875,12.0352041 132.129431,12.7851853 C131.645005,13.5351665 131.270677,14.0866233 130.918367,14.1748564 C131.050483,14.4395557 131.226638,14.9910125 131.270677,15.2336535 C131.556928,15.1013038 132.063373,14.9689542 135.256176,14.4836722 C134.155209,16.1159844 133.120301,17.4615389 132.657895,17.9247626 C131.997315,18.7409187 131.446831,19.3144338 131.050483,19.4026669 C131.182599,19.7114827 131.336735,20.2408812 131.402793,20.4835222 C131.799141,20.2188229 132.437701,19.9982402 137.920516,18.6747439 C137.876477,18.4321029 137.832438,18.0129957 137.854458,17.7262382 L133.230397,18.7850352 Z M131.226638,24.85106 C133.208378,24.3216615 135.894737,23.5937385 138.493018,22.9319904 L138.360902,21.9614264 C135.586466,22.6672911 132.81203,23.3731558 130.984425,23.792263 L131.226638,24.85106 Z M148.467777,19.1600259 L148.467777,24.034904 L141.443609,24.034904 L141.443609,19.1600259 L148.467777,19.1600259 Z M140.43072,26.0422067 L141.443609,26.0422067 L141.443609,25.0054679 L148.467777,25.0054679 L148.467777,26.0422067 L149.502685,26.0422067 L149.502685,18.1894619 L140.43072,18.1894619 L140.43072,26.0422067 Z M142.08217,9.45438625 L148.621912,9.45438625 C147.741139,11.0866984 146.441998,12.5425443 144.900644,13.733691 C143.601504,12.6087191 142.566595,11.2852228 141.861976,9.85143514 L142.08217,9.45438625 Z M149.436627,8.3955892 L149.216434,8.46176402 L142.654672,8.46176402 C143.029001,7.77795759 143.337272,7.02797634 143.645542,6.30005337 L142.654672,6.01329584 C141.685822,8.57205538 140.056391,11.0425818 138.272825,12.6528357 C138.515038,12.8513601 138.889366,13.248409 139.021482,13.4248752 C139.814178,12.6748939 140.584855,11.7484465 141.289474,10.733766 C142.016112,12.0572623 143.006982,13.248409 144.174006,14.3072061 C142.39044,15.520411 140.386681,16.5130332 138.382922,17.1527231 C138.581096,17.3733058 138.823308,17.792413 138.933405,18.0791705 C141.003222,17.3512476 143.117078,16.3145088 144.944683,14.9468959 C146.574114,16.2262757 148.489796,17.2630145 150.515575,17.9688792 C150.581633,17.6821217 150.801826,17.2850728 151,17.06449 C149.040279,16.4689167 147.234694,15.520411 145.671321,14.3733809 C147.542965,12.8734184 149.062299,11.0205236 150.053169,8.81469637 L149.436627,8.3955892 Z" id="网络" fill="#FFFFFF"></path>
                    <g id="Page-1">
                        <path d="M36.5105595,24.062967 C35.9556025,24.525207 35.1848886,24.802497 34.2620177,24.802497 L33.5532937,24.802497 L32.4404278,24.802497 C31.8540734,24.802497 31.5164835,24.834627 31.3015316,24.802497 C30.9604532,24.741477 30.9604532,24.495507 30.9604532,23.569677 L30.9604532,18.084357 C30.9604532,17.407467 30.9907772,17.253837 31.3015316,17.223597 C31.4845494,17.223597 31.7327772,17.253837 32.1023013,17.253837 L33.5532937,17.253837 L34.2620177,17.253837 C35.1848886,17.253837 35.9556025,17.531127 36.5105595,17.933697 C38.3901139,19.350117 38.327319,22.584447 36.5105595,24.062967 M39.9607924,16.854777 C39.1280886,16.050987 37.9878506,15.497487 36.5105595,15.313347 C36.1716278,15.252867 35.8337696,15.220467 35.4637089,15.220467 L33.5532937,15.220467 L31.3015316,15.220467 L29.4810152,15.220467 L29.4501544,15.220467 C27.6006557,15.220467 27.3229089,15.159717 27.3229089,16.976817 L27.3229089,24.371577 C27.3229089,26.835867 27.4162962,26.835867 29.4810152,26.835867 L30.0955468,26.835867 L31.3015316,26.835867 L33.5532937,26.835867 L35.2774709,26.835867 C35.7097899,26.835867 36.1415722,26.804277 36.5105595,26.743797 C37.9878506,26.529687 39.1280886,25.911117 39.9607924,25.078977 C42.241,22.832037 42.241,19.010997 39.9607924,16.854777" id="Fill-1" fill="#E2003B"></path>
                        <g id="Group-5" transform="translate(21.468354, 15.775992)" fill="#E2003B">
                            <path d="M2.86430785,11.05974 L1.29255595,11.05974 C0.0600040506,11.05974 0.091401519,11.24469 0.091401519,10.04481 L0.091401519,9.85932 L0.091401519,5.57739 L0.091401519,2.86362 L3.82045468,0.12285 L3.82045468,1.32327 L3.82045468,2.86362 L3.82045468,5.57739 L3.82045468,9.95193 C3.82045468,10.96767 3.87949266,11.05974 2.86430785,11.05974" id="Fill-3"></path>
                        </g>
                        <path d="M21.5596218,17.809578 L21.5596218,16.793298 C21.5596218,15.343938 21.3419863,15.220548 22.7610446,15.220548 L23.3463256,15.220548 L24.9489382,15.220548 L21.5596218,17.809578 Z" id="Fill-6" fill="#E2003B"></path>
                        <path d="M15.9489478,15.220602 L17.8301124,15.220602 C19.9248871,15.220602 19.7391858,15.281622 19.7391858,17.376822 L19.7391858,25.728192 C19.7391858,26.804412 19.7391858,26.835732 18.6915301,26.835732 L17.1509073,26.835732 C16.1338441,26.835732 15.9489478,26.928612 15.9489478,25.848612 L15.9489478,25.667172 L15.9489478,18.332082 C15.9489478,17.316072 16.1027149,17.223732 15.1167808,17.223732 L15.1167808,15.220602 L15.9489478,15.220602 Z" id="Fill-8" fill="#E2003B"></path>
                        <path d="M1.15354835,24.834735 L1.52226734,24.834735 L8.88993823,24.834735 C11.20208,24.834735 11.20208,21.937095 8.88993823,21.937095 L1.67764456,21.937095 C0.321112911,21.937095 0.0127736709,21.876885 0.0127736709,20.519055 L0.0127736709,17.191845 C0.0127736709,15.313185 0.351973671,15.220575 2.17007494,15.220575 L13.5134167,15.220575 C14.3155281,15.220575 14.3155281,15.099075 14.3155281,15.898815 L14.3155281,16.359975 C14.3155281,17.191845 14.4687585,17.223705 13.6068041,17.223705 L4.51254076,17.223705 C3.86580658,17.223705 3.80435342,17.191845 3.80435342,17.871435 L3.80435342,19.350225 C3.80435342,19.995795 3.74316861,19.934235 4.39124456,19.934235 L10.8320192,19.934235 C16.3504597,19.934235 15.9809357,26.835705 10.3087281,26.835705 L0.876069873,26.835705 C0.38283443,26.835705 0.0127736709,26.835705 0.0127736709,26.344035 C0.0127736709,25.018335 -0.204056709,24.834735 1.15354835,24.834735" id="Fill-10" fill="#E2003B"></path>
                        <path d="M49.734878,6.648102 C49.4659868,6.648102 49.1938754,6.657012 48.9206906,6.674022 C47.0132273,2.649672 42.6615919,-0.000108 37.8226248,-0.000108 C32.9871463,-0.000108 28.6347058,2.647512 26.7267058,6.667272 C26.4902856,6.654582 26.2562805,6.648102 26.0265691,6.648102 C21.6268982,6.648102 17.7676932,8.812962 15.6490349,12.042972 L18.4066451,12.042972 C20.2129387,10.017162 22.9576678,8.720352 26.0265691,8.720352 C26.4427868,8.720352 26.8780577,8.747622 27.3200375,8.800812 L28.2300273,8.909892 L28.5332678,8.115282 C29.9131463,4.500792 33.6464932,2.072952 37.8226248,2.072952 C42.0038552,2.072952 45.7385438,4.506462 47.1160071,8.127972 L47.4216628,8.931762 L48.3410451,8.812692 C54.3838501,8.022402 59.5775818,12.352932 59.5775818,17.749422 C59.5775818,20.738592 58.7405843,22.836222 56.1866552,24.328512 C55.7704375,24.516432 55.3370451,24.640092 54.8542754,24.719202 C54.6618653,24.732432 54.4555008,24.744582 54.2609438,24.755652 C53.8033995,24.781302 53.4301185,24.796152 53.3890603,24.796152 L50.5547008,24.796152 C50.1524375,24.796152 49.3750147,24.739452 49.0355463,24.679242 C48.0799362,24.587712 47.5421539,24.402762 47.0502603,24.032862 C46.4335818,23.508522 46.1247058,22.615902 46.1247058,21.353382 C46.1247058,19.872702 46.4335818,18.826182 47.1117134,18.178722 C47.5746248,17.716212 48.2830805,17.407602 49.2072932,17.284212 C49.5462248,17.223732 49.946878,17.223732 50.3483362,17.223732 L53.6206501,17.223732 C53.928721,17.223732 54.1122754,17.132472 54.1122754,16.823592 L54.1122754,15.620472 C54.1122754,15.313212 53.9891008,15.220602 53.6821033,15.220602 L50.2554856,15.220602 C49.917359,15.220602 49.5462248,15.253002 49.2072932,15.253002 C46.9893438,15.375312 45.2946856,15.836742 44.1217084,16.698042 C42.8266299,17.686512 42.1487666,19.195272 42.1487666,21.226752 C42.1487666,22.277592 42.365597,23.200722 42.8266299,23.971302 C43.2589489,24.711372 43.9072932,25.326972 44.7995716,25.820802 C45.47824,26.189352 46.2162147,26.437212 46.9893438,26.590572 C47.5746248,26.711532 48.3131362,26.775252 49.2072932,26.804412 C49.5156324,26.804412 49.9675413,26.835732 50.3075463,26.835732 L53.3732273,26.835732 C59.2397235,26.839242 61.8371261,22.030542 61.8371261,17.749422 C61.8371261,11.627442 56.4077792,6.648102 49.734878,6.648102" id="Fill-12" fill="#E2003B"></path>
                        <path d="M94.558843,21.083463 C94.5722608,21.017313 94.6363975,20.997603 94.6804076,20.962503 C96.674281,19.369503 97.988681,17.309133 98.7993797,14.902893 C98.8326557,14.804073 98.8369494,14.753313 98.7019671,14.756013 C97.929643,14.773023 97.1551722,14.727393 96.3836532,14.805963 C96.1805089,14.827023 95.9762911,14.850513 95.7895165,14.935293 C95.6996177,14.975793 95.6768076,14.942853 95.6499722,14.870223 C95.5455823,14.581593 95.4285797,14.298093 95.2715924,14.034033 C95.2305342,13.965183 95.2412684,13.945743 95.3164076,13.927923 C95.8820987,13.795893 96.3656734,13.491603 96.8457595,13.183803 C98.3010456,12.251493 99.6272532,11.150163 100.933603,10.022913 C101.448306,9.578763 101.948519,9.118953 102.439071,8.648343 C102.484423,8.605413 102.525213,8.557893 102.573248,8.506863 C102.491668,8.458263 102.419213,8.477973 102.350782,8.477703 C100.065744,8.477163 97.7809747,8.477163 95.4959367,8.477163 C95.2632734,8.477163 95.2632734,8.477163 95.2632734,8.234163 C95.2632734,8.023023 95.2710557,7.811613 95.2605899,7.600743 C95.253881,7.471953 95.2970861,7.441983 95.4197241,7.442523 C96.1281797,7.448193 96.835562,7.445223 97.5432127,7.445223 C99.5405747,7.445223 101.5374,7.445223 103.534225,7.444683 C103.599435,7.444683 103.673501,7.467363 103.727977,7.425783 C103.902139,7.293753 104.029608,7.384473 104.165663,7.495983 C104.328286,7.628823 104.497349,7.754643 104.671243,7.872363 C104.768119,7.937703 104.770266,7.975773 104.683319,8.055153 C104.108772,8.575983 103.544423,9.108963 102.966387,9.626283 C101.460651,10.974393 99.9114405,12.268233 98.2417392,13.407903 C98.1078304,13.499163 97.9755316,13.592043 97.8429646,13.684653 C97.8413544,13.686543 97.844038,13.695453 97.8469899,13.721643 L98.0131013,13.721643 L105.749223,13.721643 C105.974372,13.721643 105.974372,13.721643 105.958003,13.943853 C105.826509,15.766353 105.731511,17.591823 105.566742,19.412433 C105.424514,20.978703 105.28658,22.546053 104.957577,24.088833 C104.858554,24.554043 104.735916,25.013313 104.526063,25.442343 C104.194646,26.118693 103.654985,26.471583 102.905203,26.508033 C102.108727,26.546373 101.313056,26.573913 100.515506,26.559603 C100.413263,26.557443 100.331415,26.535843 100.254129,26.467803 C100.083724,26.319843 99.908757,26.176203 99.7053443,26.005833 C100.18382,25.950483 100.621775,25.905123 101.057851,25.848153 C101.569603,25.781733 102.078939,25.705323 102.589618,25.633233 C103.044747,25.569243 103.351476,25.304643 103.557841,24.906933 C103.804458,24.431733 103.917972,23.912793 104.019678,23.393853 C104.274078,22.090833 104.405035,20.771343 104.529552,19.451313 C104.672048,17.950113 104.768119,16.445133 104.880559,14.941503 C104.892099,14.783553 104.850504,14.750613 104.702104,14.755203 C104.354316,14.766273 104.006261,14.764113 103.658742,14.756013 C103.530737,14.753313 103.475992,14.785443 103.439496,14.919363 C102.947334,16.709463 102.316165,18.446913 101.471922,20.101743 C100.915354,21.192273 100.286063,22.237983 99.5309139,23.201343 C99.0089646,23.867433 98.3635722,24.412833 97.7278405,24.964173 C97.323162,25.315713 96.8911114,25.627293 96.4362506,25.911603 C96.0122506,26.176203 95.5686608,26.179983 95.1060177,26.098713 C95.0990405,26.046063 95.1382203,26.033913 95.1666658,26.015553 C97.5064481,24.443883 99.2319671,22.331943 100.534023,19.847943 C101.354651,18.282483 101.965425,16.634133 102.444438,14.933403 C102.487643,14.779233 102.456246,14.754393 102.308919,14.756013 C101.547329,14.761683 100.784934,14.762763 100.024149,14.755203 C99.8891671,14.753853 99.8448886,14.802993 99.8057089,14.924223 C99.4581899,15.997473 99.0250658,17.035893 98.4373696,17.997363 C97.7890253,19.058733 96.9794,19.984833 95.9950759,20.748123 C95.9046405,20.818053 95.8034709,20.872593 95.7133038,20.941443 C95.3558557,21.213063 94.9672785,21.220623 94.558843,21.083463" id="Fill-14" fill="#FFFFFF"></path>
                        <path d="M78.7269782,16.249437 C78.7398592,16.135497 78.6539858,16.173837 78.6075605,16.173567 C76.5439149,16.172217 74.4808061,16.172487 72.4174289,16.171677 C72.3468516,16.171677 72.2969377,16.184637 72.2553428,16.252677 C71.5831149,17.359677 70.8338694,18.413757 70.0728162,19.459737 C70.0019706,19.556397 70.0274643,19.582857 70.1243403,19.612017 C70.582958,19.748367 71.0396972,19.890387 71.4985833,20.027547 C72.8234491,20.423907 74.1625377,20.775717 75.4433934,21.310857 C75.54832,21.354867 75.595282,21.297627 75.6564668,21.238497 C77.0806238,19.853397 78.0579706,18.188037 78.7049732,16.315317 C78.7124871,16.292637 78.7202694,16.269417 78.7269782,16.249437 M66.9534643,26.568567 C67.1171605,26.349867 67.2685124,26.147907 67.4193276,25.946487 C67.466558,25.884117 67.5400871,25.871427 67.606639,25.846317 C68.569763,25.482357 69.5452314,25.153227 70.4895706,24.739857 C71.9113124,24.116697 73.2015605,23.281587 74.4193529,22.324167 C74.4808061,22.275837 74.5417225,22.227777 74.6055909,22.177287 C74.5795605,22.108707 74.5116668,22.108167 74.462558,22.086567 C72.6197681,21.287367 70.7461175,20.570787 68.8357023,19.953567 C68.6813985,19.904157 68.6663706,19.872027 68.7632466,19.741887 C69.5798491,18.646497 70.3323149,17.507367 71.0359403,16.335027 C71.062239,16.291017 71.1244972,16.247817 71.0928314,16.194897 C71.0635808,16.145757 70.9943453,16.173297 70.943358,16.173297 C69.3182035,16.172217 67.6927808,16.169787 66.0678947,16.176537 C65.9090289,16.177347 65.8612618,16.139817 65.8719959,15.979167 C65.8872922,15.750747 65.8867554,15.519897 65.8719959,15.291747 C65.8615301,15.137847 65.9329124,15.132987 66.05072,15.133257 C67.6994896,15.136227 69.3490643,15.135417 70.9978339,15.135417 C71.1958795,15.135417 71.3941934,15.130287 71.592239,15.137847 C71.6891149,15.141357 71.7398339,15.106797 71.7878694,15.021747 C72.4241377,13.889637 73.0282035,12.741057 73.5174137,11.535237 C73.5901377,11.355957 73.6585681,11.278197 73.8641276,11.348397 C74.0782744,11.421567 74.3053023,11.461527 74.5293782,11.495547 C74.6643605,11.515257 74.6461124,11.563587 74.6066643,11.658357 C74.230163,12.557187 73.7967706,13.428477 73.3427149,14.289777 C73.2139048,14.534397 73.085363,14.779017 72.9514542,15.021477 C72.9055656,15.105987 72.9144213,15.142167 73.0163959,15.135957 C73.0579909,15.132987 73.1001225,15.135417 73.1419858,15.135417 C76.7765782,15.135417 80.4109023,15.137037 84.0454947,15.131097 C84.2290491,15.130827 84.2819149,15.175647 84.2676922,15.357897 C84.2497124,15.573897 84.2537377,15.792597 84.2671554,16.009137 C84.2757428,16.151967 84.2231453,16.175457 84.0943352,16.175187 C82.7632972,16.170597 81.4314542,16.174647 80.1001478,16.169247 C79.9530896,16.168707 79.8849276,16.205427 79.835282,16.355007 C79.1633225,18.355977 78.1524314,20.157687 76.6979504,21.692637 C76.5769225,21.820347 76.6748719,21.828987 76.7559149,21.864357 C78.414077,22.591197 80.0445985,23.374467 81.6252061,24.260877 C82.242958,24.608097 82.8480972,24.975297 83.4403554,25.363017 C83.5637985,25.443747 83.549039,25.478037 83.4403554,25.552557 C83.1540213,25.750197 82.8738592,25.957017 82.5915504,26.161947 C82.5317073,26.205417 82.4863554,26.237547 82.4053124,26.181657 C80.6432972,24.969087 78.7310035,24.035427 76.8066339,23.122827 C76.4762896,22.966497 76.1429934,22.817727 75.8131858,22.661127 C75.7350947,22.623867 75.6784719,22.617657 75.6038694,22.678677 C73.856077,24.122367 71.842077,25.056297 69.7185884,25.779087 C68.8386542,26.078787 67.9450339,26.330697 67.0452415,26.559117 C67.0235048,26.564517 67.0004263,26.563977 66.9534643,26.568567" id="Fill-16" fill="#FFFFFF"></path>
                        <path d="M90.4928977,12.088035 C90.4928977,11.563695 90.4888724,11.039355 90.4958496,10.515015 C90.4971914,10.391625 90.4682091,10.351935 90.339399,10.353015 C89.7044724,10.360305 89.0692775,10.360845 88.4346192,10.352745 C88.2948066,10.351395 88.2671661,10.395675 88.2682395,10.526625 C88.2730699,11.569365 88.2730699,12.612105 88.2682395,13.654575 C88.2671661,13.781745 88.3017838,13.817115 88.4279104,13.816035 C89.062837,13.809555 89.6974952,13.808205 90.3324218,13.816845 C90.4751863,13.818735 90.4977281,13.771215 90.496118,13.642965 C90.4888724,13.124565 90.4928977,12.606165 90.4928977,12.088035 L90.4928977,12.088035 Z M90.4928977,16.567065 C90.4928977,16.018425 90.4896775,15.469785 90.4950446,14.920875 C90.496118,14.804235 90.4808218,14.753475 90.3436927,14.754825 C89.7023256,14.763195 89.0612268,14.761305 88.4198597,14.755635 C88.2991003,14.754555 88.2682395,14.791275 88.2687762,14.908995 C88.2728015,16.006545 88.2728015,17.104095 88.2687762,18.201375 C88.2682395,18.323415 88.2961484,18.368235 88.4257635,18.367155 C89.067399,18.360675 89.7084977,18.360675 90.3498648,18.367155 C90.4741129,18.368505 90.496118,18.325305 90.4947762,18.213525 C90.4896775,17.664885 90.4928977,17.116245 90.4928977,16.567065 L90.4928977,16.567065 Z M91.3849078,12.069675 C91.3849078,12.600225 91.3883965,13.130775 91.3824927,13.661325 C91.3816876,13.775805 91.4061078,13.817115 91.5295509,13.816035 C92.2007053,13.809555 92.8723965,13.810635 93.5432825,13.815495 C93.6581382,13.816305 93.6943661,13.787415 93.6938294,13.664835 C93.6876572,12.615885 93.6884623,11.566395 93.6932927,10.517445 C93.6938294,10.395135 93.6675306,10.352205 93.5371104,10.353015 C92.8721281,10.360035 92.2066091,10.359765 91.5413585,10.353285 C91.4149635,10.352745 91.3808825,10.388115 91.3819559,10.513935 C91.3897382,11.032335 91.3851762,11.550735 91.3849078,12.069675 L91.3849078,12.069675 Z M93.6900724,16.567335 C93.6900724,16.012215 93.6873889,15.457095 93.6924876,14.901975 C93.693561,14.795595 93.6696775,14.755095 93.5545534,14.756175 C92.8774952,14.761035 92.1990952,14.761305 91.5215003,14.755635 C91.4069129,14.754825 91.382761,14.791005 91.382761,14.898735 C91.3870547,16.009245 91.387323,17.119485 91.3824927,18.229725 C91.3819559,18.347985 91.4232825,18.366615 91.5271357,18.365805 C92.1990952,18.362025 92.8707863,18.361215 93.5419408,18.366615 C93.6621635,18.367965 93.6943661,18.332865 93.6927559,18.214605 C93.6871205,17.665965 93.6900724,17.116515 93.6900724,16.567335 L93.6900724,16.567335 Z M87.3904522,14.940855 C87.3904522,13.149135 87.3928673,11.356875 87.3864268,9.565155 C87.3856218,9.405585 87.4239965,9.366975 87.5820572,9.368595 C88.4818496,9.377235 89.3811053,9.368865 90.2808977,9.376425 C90.4252724,9.377235 90.4572066,9.335655 90.4561332,9.196335 C90.449961,8.339355 90.4566699,7.482645 90.4496927,6.625935 C90.4478142,6.480135 90.4899458,6.441255 90.6289534,6.449085 C90.8320977,6.460965 91.0373889,6.462585 91.2402648,6.449085 C91.3881281,6.439095 91.4316015,6.480945 91.4299914,6.634575 C91.4222091,7.485075 91.429723,8.336115 91.4230142,9.185805 C91.4214041,9.331875 91.4495813,9.377775 91.6052268,9.376695 C92.5463458,9.368595 93.4877332,9.375345 94.4293889,9.369405 C94.5606142,9.368865 94.5989889,9.396675 94.5984522,9.535455 C94.5944268,12.751425 94.5944268,15.967125 94.5989889,19.183095 C94.5989889,19.328895 94.5573939,19.360215 94.4197281,19.359135 C93.4786091,19.353195 92.5366851,19.359675 91.5950294,19.352115 C91.4487762,19.350495 91.4230142,19.397205 91.4235509,19.532475 C91.4273078,21.836925 91.4240876,24.141645 91.4305281,26.447445 C91.4313332,26.618355 91.3816876,26.657775 91.2236268,26.647785 C91.0148471,26.634555 90.8036522,26.636175 90.5946041,26.647785 C90.4706243,26.653995 90.4502294,26.608095 90.4504977,26.495775 C90.454523,25.662555 90.4531813,24.829875 90.4531813,23.996925 C90.4531813,22.513005 90.449961,21.028815 90.4572066,19.544355 C90.45828,19.377495 90.4091711,19.350225 90.2588927,19.352385 C89.6591205,19.361025 89.0588116,19.362645 88.4601129,19.351305 C88.2956116,19.348335 88.2607256,19.399365 88.2679711,19.552725 C88.2808522,19.823265 88.2642142,20.095425 88.27468,20.367045 C88.2797787,20.498535 88.2338901,20.530125 88.1117889,20.523915 C87.9201838,20.514465 87.7275053,20.514195 87.5361686,20.524185 C87.4151408,20.530395 87.3864268,20.488005 87.3877686,20.370825 C87.3934041,19.815975 87.3904522,19.260855 87.3904522,18.705735 L87.3904522,14.940855 Z" id="Fill-18" fill="#FFFFFF"></path>
                        <path d="M75.0009575,10.092438 C72.5605423,10.092438 70.1195904,10.093788 67.6797119,10.088928 C67.5345322,10.088658 67.4902537,10.116198 67.4915954,10.271448 C67.5001828,11.224818 67.4924005,12.178188 67.4993777,13.131018 C67.5004511,13.266558 67.468517,13.306248 67.3327296,13.299768 C67.0810132,13.287888 66.8290284,13.293018 66.5770435,13.298148 C66.4874132,13.299498 66.4530638,13.277898 66.4530638,13.178538 C66.4568208,11.845008 66.4578942,10.512018 66.4525271,9.178218 C66.4519904,9.007308 66.561479,9.055098 66.6449372,9.055098 C69.007798,9.053478 71.3706587,9.053748 73.7324461,9.053748 C73.9723549,9.053748 74.2125322,9.048348 74.4519043,9.056178 C74.5801777,9.060228 74.6067448,9.034578 74.5520005,8.908218 C74.2436613,8.190558 73.9109018,7.483698 73.5523803,6.789798 C73.4785828,6.646698 73.4834132,6.592968 73.6546233,6.563538 C73.9017777,6.520878 74.1459803,6.458778 74.3883043,6.391818 C74.4835701,6.365628 74.5230182,6.387228 74.5683701,6.471198 C74.995322,7.258248 75.406441,8.053668 75.7338334,8.888778 C75.7837473,9.014598 75.842517,9.057528 75.9783043,9.057258 C78.4423347,9.052668 80.9071701,9.055638 83.3717372,9.050508 C83.5351651,9.049428 83.5794435,9.089928 83.5786385,9.257058 C83.5708562,10.547928 83.5719296,11.839068 83.5775651,13.130208 C83.5789068,13.268718 83.5429473,13.304898 83.4093068,13.299498 C83.1578587,13.288968 82.9053372,13.290858 82.6538891,13.298958 C82.5368866,13.302468 82.5041473,13.268448 82.5049524,13.148298 C82.5100511,12.207078 82.5076359,11.266128 82.5076359,10.324908 C82.5076359,10.092438 82.5076359,10.092438 82.2682638,10.092438 L75.0009575,10.092438 Z" id="Fill-20" fill="#FFFFFF"></path>
                    </g>
                </g>
            </g>
        </g>
    </g>
</svg>