<?xml version="1.0" encoding="UTF-8" standalone="no"?>
<svg width="185px" height="33px" viewBox="0 0 185 33" version="1.1" xmlns="http://www.w3.org/2000/svg" xmlns:xlink="http://www.w3.org/1999/xlink">
    <!-- Generator: Sketch 42 (36781) - http://www.bohemiancoding.com/sketch -->
    <title>Group 12</title>
    <desc>Created with Sketch.</desc>
    <defs></defs>
    <g id="Page-1" stroke="none" stroke-width="1" fill="none" fill-rule="evenodd">
        <g id="混合云" transform="translate(-1318.000000, -4770.000000)" fill="#FFFFFF">
            <g id="Group-12" transform="translate(1318.000000, 4770.000000)">
                <g id="Group-15">
                    <path d="M144.811798,25.0067736 C144.19439,23.6943064 143.174326,22.0068486 142.020043,20.2926058 C142.852201,18.0694471 143.469608,15.605223 143.97964,12.9535036 L142.744826,12.7927933 C142.342169,15.015952 141.832137,17.1051855 141.187885,19.0604937 C140.08729,17.4533911 138.852475,15.8195034 137.725036,14.399896 L136.866034,15.0427371 C138.127693,16.6230547 139.469883,18.5515779 140.704697,20.3997459 C139.577258,23.3193158 138.074005,25.83711 136.087564,27.658493 C136.382846,27.8459883 136.919722,28.274549 137.134472,28.4620443 C138.906163,26.6138762 140.355728,24.3103624 141.510011,21.631858 C142.476388,23.1586055 143.281701,24.6049979 143.872265,25.7567548 L144.811798,25.0067736 Z M152.89178,25.9710352 C152.247529,24.4442877 151.146933,22.4621944 149.831587,20.426531 C150.636901,18.2033723 151.227465,15.7391482 151.710653,13.0338587 L150.529526,12.8731485 C150.153713,15.1498772 149.670525,17.2391107 149.026274,19.1944189 C147.952522,17.5337462 146.771395,15.8998585 145.643955,14.4534661 L144.704423,15.0695221 C145.966081,16.7034098 147.308271,18.6587181 148.516241,20.5872413 C147.388802,23.5335961 145.858706,26.0246053 143.818577,27.8727733 C144.140703,28.0334836 144.623891,28.4352593 144.865485,28.6227546 C146.717707,26.8281566 148.194116,24.5246428 149.294711,21.8193533 C150.368463,23.5871662 151.281152,25.274624 151.89856,26.6406613 L152.89178,25.9710352 Z M155.898285,9.33752261 L134.101124,9.33752261 L134.101124,31.863745 L135.389626,31.863745 L135.389626,10.5696347 L154.609783,10.5696347 L154.609783,29.9620068 C154.609783,30.4441376 154.421876,30.5780628 153.938688,30.6048479 C153.482343,30.6316329 151.844872,30.658418 149.99265,30.6048479 C150.180557,30.9530534 150.422151,31.4887543 150.502682,31.863745 C152.864936,31.863745 154.153438,31.8369599 154.905065,31.6226796 C155.603003,31.3816142 155.898285,30.9530534 155.898285,29.9352218 L155.898285,9.33752261 Z M162.421327,22.8103999 C164.595675,20.3461759 166.743178,17.2391107 168.622244,14.0784755 L167.441117,13.4356344 C166.904241,14.426681 166.313677,15.4177277 165.669426,16.3819893 L161.562326,16.8641201 C163.226641,14.5070362 164.864113,11.399971 166.152615,8.40004605 L164.890956,7.83756012 C163.736673,11.0785505 161.696545,14.6141764 161.079137,15.5248679 C160.488574,16.4355594 160.032229,17.1051855 159.602729,17.2123257 C159.763792,17.5337462 159.978542,18.2033723 160.032229,18.4980078 C160.381199,18.3372975 160.998606,18.1765873 164.890956,17.5873163 C163.548767,19.5694096 162.287108,21.2032973 161.723389,21.7657832 C160.918075,22.7568299 160.24698,23.453241 159.763792,23.5603812 C159.924854,23.9353718 160.112761,24.5782129 160.193292,24.8728484 C160.676481,24.5514278 161.454951,24.2835774 168.139056,22.6764747 C168.085368,22.3818392 168.03168,21.8729234 168.058524,21.5247178 L162.421327,22.8103999 Z M159.978542,30.1762872 C162.394483,29.5334461 165.669426,28.6495396 168.836994,27.8459883 L168.675931,26.6674463 C165.293613,27.5245678 161.911295,28.3816892 159.68326,28.890605 L159.978542,30.1762872 Z M180.997233,23.2657457 L180.997233,29.1852405 L172.434063,29.1852405 L172.434063,23.2657457 L180.997233,23.2657457 Z M171.199248,31.6226796 L172.434063,31.6226796 L172.434063,30.3637825 L180.997233,30.3637825 L180.997233,31.6226796 L182.258892,31.6226796 L182.258892,22.0872037 L171.199248,22.0872037 L171.199248,31.6226796 Z M173.212533,11.4803262 L181.18514,11.4803262 C180.111388,13.4624194 178.527604,15.2302324 176.648538,16.6766248 C175.064755,15.3105875 173.803096,13.7034848 172.944095,11.962457 L173.212533,11.4803262 Z M182.17836,10.194644 L181.909922,10.2749992 L173.910471,10.2749992 C174.366816,9.44466279 174.742629,8.53397128 175.118442,7.65006481 L173.910471,7.30185923 C172.729344,10.4089244 170.742904,13.4088494 168.568556,15.3641576 C168.863838,15.605223 169.320182,16.0873538 169.481245,16.3016342 C170.447622,15.3909426 171.387155,14.2659708 172.246156,13.0338587 C173.132001,14.6409614 174.339972,16.0873538 175.762693,17.3730359 C173.588346,18.8462134 171.145561,20.0515404 168.702775,20.8283067 C168.944369,21.0961571 169.239651,21.6050729 169.37387,21.9532785 C171.897187,21.0693721 174.474191,19.810475 176.702226,18.1498022 C178.688667,19.7033348 181.024077,20.9622319 183.493706,21.8193533 C183.574238,21.4711477 183.842676,20.9890169 184.08427,20.7211665 C181.695172,19.9979703 179.493981,18.8462134 177.588071,17.4533911 C179.869794,15.632008 181.722016,13.3820643 182.929986,10.7035599 L182.17836,10.194644 Z" id="网络"></path>
                    <g id="Page-1">
                        <path d="M44.5100641,29.2193171 C43.8335154,29.7806085 42.8939372,30.1173178 41.7688643,30.1173178 L40.904858,30.1173178 L39.548162,30.1173178 C38.8333367,30.1173178 38.4217805,30.1563328 38.1597324,30.1173178 C37.7439232,30.0432221 37.7439232,29.7445442 37.7439232,28.6203221 L37.7439232,21.9595764 C37.7439232,21.1376385 37.7808913,20.9510878 38.1597324,20.9143678 C38.3828495,20.9143678 38.6854644,20.9510878 39.1359515,20.9510878 L40.904858,20.9510878 L41.7688643,20.9510878 C42.8939372,20.9510878 43.8335154,21.2877971 44.5100641,21.7766321 C46.801431,23.4965706 46.7248776,27.4239714 44.5100641,29.2193171 M48.7162469,20.4665149 C47.7010968,19.4904842 46.3110314,18.8183771 44.5100641,18.5947785 C44.0968722,18.5213385 43.6849888,18.4819956 43.2338473,18.4819956 L40.904858,18.4819956 L38.1597324,18.4819956 L35.9403387,18.4819956 L35.9027164,18.4819956 C33.6479904,18.4819956 33.3093889,18.4082278 33.3093889,20.6147064 L33.3093889,29.5940578 C33.3093889,32.5864099 33.4232375,32.5864099 35.9403387,32.5864099 L36.689515,32.5864099 L38.1597324,32.5864099 L40.904858,32.5864099 L43.0068044,32.5864099 C43.533845,32.5864099 44.0602312,32.5480506 44.5100641,32.4746106 C46.3110314,32.2146199 47.7010968,31.4634992 48.7162469,30.4530435 C51.4960506,27.7246164 51.4960506,23.0847821 48.7162469,20.4665149" id="Fill-1"></path>
                        <g id="Group-5" transform="translate(26.172095, 19.156562)">
                            <path d="M3.49188092,13.4296843 L1.57575641,13.4296843 C0.0731510055,13.4296843 0.111427694,13.6542664 0.111427694,12.1972693 L0.111427694,11.9720314 L0.111427694,6.772545 L0.111427694,3.47725286 L4.6575206,0.149175 L4.6575206,1.60682786 L4.6575206,3.47725286 L4.6575206,6.772545 L4.6575206,12.0844864 C4.6575206,13.317885 4.72949386,13.4296843 3.49188092,13.4296843" id="Fill-3"></path>
                        </g>
                        <path d="M26.2833591,21.6259161 L26.2833591,20.3918619 C26.2833591,18.6319247 26.0180395,18.482094 27.748015,18.482094 L28.4615317,18.482094 L30.4152786,18.482094 L26.2833591,21.6259161 Z" id="Fill-6"></path>
                        <path d="M19.4433802,18.4821596 L21.7367101,18.4821596 C24.2904522,18.4821596 24.0640636,18.5562553 24.0640636,21.1004267 L24.0640636,31.241376 C24.0640636,32.5482146 24.0640636,32.586246 22.7868654,32.586246 L20.9086904,32.586246 C19.6687874,32.586246 19.4433802,32.6990289 19.4433802,31.3876003 L19.4433802,31.1672803 L19.4433802,22.2603853 C19.4433802,21.0266589 19.6308379,20.9145317 18.4288844,20.9145317 L18.4288844,18.4821596 L19.4433802,18.4821596 Z" id="Fill-8"></path>
                        <path d="M1.4062921,30.1564639 L1.85579783,30.1564639 L10.8377337,30.1564639 C13.6564683,30.1564639 13.6564683,26.6379011 10.8377337,26.6379011 L2.04521836,26.6379011 C0.391469111,26.6379011 0.0155723965,26.5647889 0.0155723965,24.9159954 L0.0155723965,20.8758118 C0.0155723965,18.5945818 0.429091498,18.4821268 2.64554079,18.4821268 L16.4742215,18.4821268 C17.4520764,18.4821268 17.4520764,18.3345911 17.4520764,19.3057039 L17.4520764,19.8656839 C17.4520764,20.8758118 17.6388797,20.9144989 16.5880701,20.9144989 L5.50124351,20.9144989 C4.71280915,20.9144989 4.63789153,20.8758118 4.63789153,21.7010282 L4.63789153,23.4967018 C4.63789153,24.2806082 4.56330106,24.2058568 5.35337117,24.2058568 L13.2053268,24.2058568 C19.9328638,24.2058568 19.4823767,32.5862132 12.567382,32.5862132 L1.06801777,32.5862132 C0.466713884,32.5862132 0.0155723965,32.5862132 0.0155723965,31.9891854 C0.0155723965,30.3794068 -0.248765763,30.1564639 1.4062921,30.1564639" id="Fill-10"></path>
                        <path d="M60.6318456,8.07269529 C60.3040401,8.07269529 59.9723088,8.08351457 59.6392689,8.10416957 C57.3138783,3.21745886 52.0087946,-0.000131142857 46.1096044,-0.000131142857 C40.2146672,-0.000131142857 34.908602,3.214836 32.5825571,8.09597314 C32.2943369,8.08056386 32.0090611,8.07269529 31.7290197,8.07269529 C26.3653759,8.07269529 21.6606147,10.7014539 19.0777561,14.6236089 L22.4395617,14.6236089 C24.6416163,12.1636967 27.9877187,10.5889989 31.7290197,10.5889989 C32.2364311,10.5889989 32.7670704,10.6221124 33.3058884,10.6867003 L34.4152581,10.8191546 L34.7849389,9.854271 C36.4671503,5.46524743 41.0184776,2.517156 46.1096044,2.517156 C51.2069471,2.517156 55.7599101,5.47213243 57.4391772,9.86968029 L57.8118024,10.845711 L58.9326224,10.701126 C66.2994128,9.74148814 72.6310969,14.9999889 72.6310969,21.5528696 C72.6310969,25.182576 71.6107123,27.7296981 68.4972145,29.5417646 C67.989803,29.7699531 67.4614538,29.9201117 66.8729088,30.0161739 C66.6383414,30.0322389 66.3867622,30.0469924 66.1495776,30.0604346 C65.5917848,30.091581 65.1367175,30.1096131 65.0866633,30.1096131 L61.6312925,30.1096131 C61.1408929,30.1096131 60.1931359,30.0407631 59.7792896,29.967651 C58.6143042,29.8565074 57.9586933,29.6319253 57.3590251,29.182761 C56.6072317,28.5460624 56.2306807,27.4621667 56.2306807,25.9291067 C56.2306807,24.1311381 56.6072317,22.8603639 57.4339428,22.0741624 C57.9982786,21.5125431 58.8619577,21.1378024 59.9886664,20.9879717 C60.4018583,20.9145317 60.8902951,20.9145317 61.3797132,20.9145317 L65.3689948,20.9145317 C65.7445644,20.9145317 65.9683358,20.803716 65.9683358,20.4286474 L65.9683358,18.967716 C65.9683358,18.5946146 65.8181734,18.4821596 65.4439124,18.4821596 L61.2665189,18.4821596 C60.8543084,18.4821596 60.4018583,18.5215024 59.9886664,18.5215024 C57.2847618,18.6700217 55.2188021,19.2303296 53.7888242,20.2761939 C52.2099926,21.4764789 51.3836087,23.3085446 51.3836087,25.7753417 C51.3836087,27.0513617 51.6479469,28.1723053 52.2099926,29.1080096 C52.7370332,30.006666 53.5274304,30.7541803 54.6152081,31.353831 C55.4425735,31.801356 56.3422392,32.1023289 57.2847618,32.2885517 C57.9982786,32.4354317 58.8985986,32.512806 59.9886664,32.5482146 C60.3645631,32.5482146 60.9154857,32.586246 61.3299863,32.586246 L65.0673614,32.586246 C72.2192135,32.5905081 75.3857099,26.7513724 75.3857099,21.5528696 C75.3857099,14.1190367 68.7667871,8.07269529 60.6318456,8.07269529" id="Fill-12"></path>
                        <path d="M115.276792,25.6013479 C115.293149,25.5210229 115.371338,25.4970894 115.424991,25.4544679 C117.855725,23.5201108 119.458111,21.0182329 120.446435,18.0963701 C120.487002,17.9763744 120.492236,17.9147372 120.327679,17.9180158 C119.386138,17.9386708 118.44198,17.8832629 117.50142,17.9786694 C117.253766,18.0042422 117.004804,18.0327658 116.777107,18.1357129 C116.667511,18.1848915 116.639704,18.1448929 116.606989,18.0566994 C116.479727,17.7062201 116.337089,17.3619701 116.145705,17.0413258 C116.095651,16.9577222 116.108737,16.9341165 116.20034,16.9124779 C116.889974,16.7521558 117.479501,16.3826608 118.064774,16.0089036 C119.838915,14.8768129 121.455696,13.5394836 123.048268,12.1706801 C123.675744,11.6313551 124.285554,11.0730144 124.883586,10.5015594 C124.938875,10.4494301 124.988602,10.3917272 125.047162,10.3297622 C124.947708,10.2707479 124.859377,10.2946815 124.775954,10.2943536 C121.990261,10.2936979 119.204896,10.2936979 116.419204,10.2936979 C116.135564,10.2936979 116.135564,10.2936979 116.135564,9.9986265 C116.135564,9.74224221 116.145051,9.48553007 116.132292,9.22947364 C116.124113,9.07308579 116.176785,9.03669364 116.326293,9.03734936 C117.189972,9.04423436 118.052342,9.04062793 118.91504,9.04062793 C121.350026,9.04062793 123.784358,9.04062793 126.21869,9.03997221 C126.298188,9.03997221 126.388482,9.06751221 126.454894,9.01702221 C126.667215,8.85670007 126.822612,8.96686007 126.988477,9.10226507 C127.186731,9.26357079 127.392836,9.41635221 127.60483,9.55929793 C127.722932,9.63863936 127.725549,9.68486721 127.619552,9.78125721 C126.919121,10.4136936 126.231122,11.0608836 125.526439,11.6890579 C123.690793,13.3260486 121.802149,14.8971401 119.766615,16.2810251 C119.603366,16.3918408 119.442081,16.5046236 119.280468,16.6170786 C119.278505,16.6193736 119.281777,16.6301929 119.285375,16.6619951 L119.487882,16.6619951 L128.918996,16.6619951 C129.193476,16.6619951 129.193476,16.6619951 129.17352,16.9318215 C129.013216,19.1448572 128.897404,21.3614994 128.696534,23.5722401 C128.523143,25.4741394 128.354988,27.3773501 127.9539,29.2507258 C127.833182,29.8156236 127.683673,30.3733086 127.427841,30.8942736 C127.023809,31.7155558 126.365908,32.1440651 125.451848,32.1883258 C124.480863,32.2348815 123.51086,32.2683229 122.538567,32.2509465 C122.413922,32.2483236 122.314141,32.2220951 122.219921,32.1394751 C122.01218,31.9598094 121.798878,31.7853894 121.550897,31.5785115 C122.134208,31.5113008 122.668119,31.4562208 123.199739,31.3870429 C123.823617,31.3063901 124.44455,31.2136065 125.067118,31.1260686 C125.621967,31.0483665 125.9959,30.7270665 126.24748,30.2441329 C126.548132,29.6671044 126.686517,29.0369629 126.810507,28.4068215 C127.120646,26.8245829 127.280296,25.2223451 127.432094,23.6194515 C127.605811,21.7965658 127.722932,19.9690901 127.860008,18.1432536 C127.874075,17.9514572 127.823367,17.9114586 127.642452,17.9170322 C127.218464,17.9304744 126.794149,17.9278515 126.370489,17.9180158 C126.214437,17.9147372 126.147699,17.9537522 126.103206,18.1163694 C125.503211,20.2900622 124.733751,22.3998229 123.704534,24.4092594 C123.026022,25.7334744 122.258852,27.0032651 121.338249,28.1730594 C120.70194,28.9818829 119.915141,29.6441544 119.14012,30.3136386 C118.646776,30.7405086 118.120063,31.1188558 117.565542,31.4640894 C117.048643,31.7853894 116.507862,31.7899794 115.943853,31.6912944 C115.935347,31.6273622 115.983111,31.6126086 116.017789,31.5903144 C118.87022,29.6818579 120.973803,27.1173594 122.56114,24.1010736 C123.561568,22.2001579 124.306165,20.1985901 124.890129,18.1334179 C124.942801,17.9462115 124.904524,17.9160486 124.724918,17.9180158 C123.796463,17.9249008 122.867026,17.9262122 121.939553,17.9170322 C121.774996,17.9153929 121.721016,17.9750629 121.673252,18.1222708 C121.249591,19.4255029 120.721569,20.6864415 120.005108,21.8539408 C119.214711,23.1427472 118.227696,24.2672972 117.027705,25.1941494 C116.917455,25.2790644 116.794119,25.3452915 116.684196,25.4288951 C116.248431,25.7587194 115.774716,25.7678994 115.276792,25.6013479" id="Fill-14"></path>
                        <path d="M95.9761476,19.7314592 C95.9918509,19.5931035 95.8871625,19.6396592 95.8305653,19.6393314 C93.3147727,19.6376921 90.7996344,19.6380199 88.2841689,19.6370364 C88.1981281,19.6370364 88.137278,19.6527735 88.0865696,19.7353935 C87.2670558,21.0796078 86.3536497,22.3595621 85.425849,23.6296806 C85.3394811,23.7470535 85.3705604,23.7791835 85.488662,23.8145921 C86.0477634,23.9801599 86.6045747,24.1526128 87.1640032,24.3191642 C88.7791486,24.8004585 90.4116331,25.2276564 91.9731257,25.8774692 C92.1010418,25.9309099 92.1582933,25.8614042 92.2328837,25.7896035 C93.9690751,24.1076964 95.1605597,22.0854735 95.9493212,19.8114564 C95.9584815,19.7839164 95.9679688,19.7557206 95.9761476,19.7314592 M81.6230436,32.2618314 C81.8226058,31.9962671 82.0071191,31.7510299 82.190978,31.5064485 C82.2485566,31.4307135 82.3381961,31.4153042 82.4193296,31.3848135 C83.5934752,30.9428621 84.7826697,30.5432042 85.9339148,30.0412549 C87.6671618,29.2845606 89.2401047,28.2704985 90.7247168,27.1079171 C90.7996344,27.0492306 90.8738977,26.9908721 90.9517597,26.9295628 C90.920026,26.8462871 90.8372568,26.8456314 90.7773881,26.8194028 C88.5308409,25.8489456 86.2466713,24.9788128 83.917682,24.2293314 C83.7295701,24.1693335 83.7112496,24.1303185 83.8293512,23.9722914 C84.8248722,22.6421749 85.7422042,21.2589456 86.5999946,19.8353899 C86.6320554,19.7819492 86.7079545,19.7294921 86.6693506,19.6652321 C86.6336912,19.6055621 86.5492861,19.6390035 86.4871274,19.6390035 C84.5058998,19.6376921 82.5243451,19.6347414 80.5434446,19.6429378 C80.3497711,19.6439214 80.2915382,19.5983492 80.3046243,19.4032742 C80.3232719,19.1259071 80.3226176,18.8455892 80.3046243,18.5685499 C80.2918654,18.3816714 80.3788876,18.3757699 80.522507,18.3760978 C82.5325239,18.3797042 84.5435222,18.3787206 86.5535391,18.3787206 C86.7949767,18.3787206 87.0367414,18.3724914 87.278179,18.3816714 C87.3962806,18.3859335 87.4581121,18.3439678 87.5166722,18.2406928 C88.2923477,16.8659878 89.028765,15.4712835 89.6251616,14.0070735 C89.7138196,13.7893764 89.7972431,13.6949535 90.0478409,13.7801964 C90.3089076,13.8690456 90.5856775,13.9175685 90.8588487,13.9588785 C91.0234058,13.9828121 91.0011595,14.0414985 90.9530683,14.1565764 C90.4940752,15.2480128 89.965726,16.3060078 89.4121862,17.3518721 C89.2551536,17.6489106 89.0984482,17.9459492 88.9351998,18.2403649 C88.8792569,18.3429842 88.8900529,18.3869171 89.0143703,18.3793764 C89.0650788,18.3757699 89.1164415,18.3787206 89.1674771,18.3787206 C93.5984128,18.3787206 98.0290213,18.3806878 102.459957,18.3734749 C102.683728,18.3731471 102.748177,18.4275714 102.730838,18.6488749 C102.708919,18.9111606 102.713826,19.1767249 102.730184,19.4396664 C102.740653,19.6131028 102.676531,19.6416264 102.519499,19.6412985 C100.896829,19.6357249 99.2731773,19.6406428 97.6501802,19.6340856 C97.4709014,19.6334299 97.387805,19.6780185 97.327282,19.8596514 C96.5080954,22.2894006 95.2757169,24.4771914 93.5025575,26.3410592 C93.3550123,26.4961356 93.4744225,26.5066271 93.5732221,26.5495764 C95.5946893,27.4321678 97.5824599,28.3832814 99.5093804,29.4596364 C100.262482,29.8812606 101.000208,30.3271464 101.722231,30.7979492 C101.872721,30.8959785 101.854727,30.9376164 101.722231,31.0281049 C101.373161,31.2680964 101.031615,31.5192349 100.687452,31.7680785 C100.614497,31.8208635 100.559209,31.8598785 100.460409,31.7920121 C98.3123342,30.3196056 95.9810549,29.1858756 93.6350537,28.0777185 C93.2323306,27.8878892 92.8260088,27.7072399 92.42394,27.5170828 C92.328739,27.4718385 92.2597101,27.4642978 92.1687621,27.5383935 C90.0380264,29.2914456 87.5827567,30.4255035 84.9940094,31.3031771 C83.9212807,31.6670985 82.8318672,31.9729892 81.7349293,32.2503564 C81.70843,32.2569135 81.680295,32.2562578 81.6230436,32.2618314" id="Fill-16"></path>
                        <path d="M110.319993,14.6783282 C110.319993,14.0416296 110.315086,13.4049311 110.323592,12.7682325 C110.325228,12.6184018 110.289895,12.5702068 110.132863,12.5715182 C109.358823,12.5803704 108.584456,12.5810261 107.810744,12.5711904 C107.640298,12.5695511 107.606601,12.6233196 107.60791,12.7823304 C107.613799,14.0485146 107.613799,15.3146989 107.60791,16.5805554 C107.606601,16.7349761 107.648804,16.7779254 107.802565,16.7766139 C108.576605,16.7687454 109.350317,16.7671061 110.124357,16.7775975 C110.298401,16.7798925 110.325882,16.7221896 110.323919,16.5664575 C110.315086,15.9369718 110.319993,15.3074861 110.319993,14.6783282 L110.319993,14.6783282 Z M110.319993,20.1171504 C110.319993,19.4509446 110.316067,18.7847389 110.32261,18.1182054 C110.323919,17.9765711 110.305271,17.9149339 110.138097,17.9165732 C109.356206,17.9267368 108.574642,17.9244418 107.79275,17.9175568 C107.645532,17.9162454 107.60791,17.9608339 107.608564,18.1037796 C107.613472,19.4365189 107.613472,20.7692582 107.608564,22.1016696 C107.60791,22.2498611 107.641934,22.3042854 107.799948,22.3029739 C108.582166,22.2951054 109.36373,22.2951054 110.145622,22.3029739 C110.297093,22.3046132 110.323919,22.2521561 110.322283,22.1164232 C110.316067,21.4502175 110.319993,20.7840118 110.319993,20.1171504 L110.319993,20.1171504 Z M111.407444,14.6560339 C111.407444,15.3002732 111.411697,15.9445125 111.404499,16.5887518 C111.403518,16.7277632 111.433289,16.7779254 111.583778,16.7766139 C112.401983,16.7687454 113.220843,16.7700568 114.038721,16.7759582 C114.178742,16.7769418 114.222907,16.7418611 114.222253,16.5930139 C114.214728,15.3192889 114.21571,14.0449082 114.221598,12.7711832 C114.222253,12.6226639 114.190192,12.5705346 114.031196,12.5715182 C113.220516,12.5800425 112.409181,12.5797146 111.598173,12.5718461 C111.444085,12.5711904 111.402537,12.6141396 111.403845,12.7669211 C111.413333,13.3964068 111.407771,14.0258925 111.407444,14.6560339 L111.407444,14.6560339 Z M114.217673,20.1174782 C114.217673,19.4434039 114.214401,18.7693296 114.220617,18.0952554 C114.221926,17.9660796 114.192809,17.9169011 114.052461,17.9182125 C113.227059,17.9241139 112.400021,17.9244418 111.573964,17.9175568 C111.43427,17.9165732 111.404827,17.9605061 111.404827,18.0913211 C111.410061,19.4397975 111.410388,20.7879461 111.404499,22.1360946 C111.403845,22.2796961 111.454226,22.3023182 111.580834,22.3013346 C112.400021,22.2967446 113.21888,22.2957611 114.037085,22.3023182 C114.183649,22.3039575 114.222907,22.2613361 114.220944,22.1177346 C114.214074,21.4515289 114.217673,20.7843396 114.217673,20.1174782 L114.217673,20.1174782 Z M106.537798,18.1424668 C106.537798,15.9668068 106.540743,13.7904911 106.532891,11.6148311 C106.53191,11.4210675 106.578692,11.3741839 106.771384,11.3761511 C107.868322,11.3866425 108.964606,11.3764789 110.061544,11.3856589 C110.237551,11.3866425 110.276482,11.3361525 110.275174,11.1669782 C110.267649,10.1263596 110.275828,9.08606893 110.267322,8.04577821 C110.265032,7.86873536 110.316395,7.82152393 110.485859,7.83103179 C110.733512,7.8454575 110.983783,7.84742464 111.231109,7.83103179 C111.41137,7.81890107 111.464368,7.86971893 111.462405,8.05626964 C111.452918,9.08901964 111.462078,10.1224254 111.453899,11.1541918 C111.451936,11.3315625 111.486287,11.3872982 111.676035,11.3859868 C112.823354,11.3761511 113.971001,11.3843475 115.118974,11.3771346 C115.278951,11.3764789 115.325734,11.4102482 115.325079,11.5787668 C115.320172,15.4838732 115.320172,19.3886518 115.325734,23.2937582 C115.325734,23.4708011 115.275025,23.5088325 115.107197,23.5075211 C113.959877,23.5003082 112.811577,23.5081768 111.663603,23.4989968 C111.485306,23.4970296 111.453899,23.5537489 111.454554,23.7180054 C111.459134,26.5162661 111.455208,29.3148546 111.46306,32.1147546 C111.464041,32.3222882 111.403518,32.3701554 111.210826,32.3580246 C110.956302,32.3419596 110.698834,32.3439268 110.443984,32.3580246 C110.29284,32.3655654 110.267976,32.3098296 110.268303,32.1734411 C110.273211,31.1616739 110.271575,30.1505625 110.271575,29.1391232 C110.271575,27.3372204 110.267649,25.5349896 110.276482,23.7324311 C110.277791,23.5298154 110.217922,23.4967018 110.034717,23.4993246 C109.303535,23.5098161 108.571697,23.5117832 107.841823,23.4980132 C107.641279,23.4944068 107.59875,23.5563718 107.607583,23.7425946 C107.623286,24.0711075 107.603003,24.4015875 107.615762,24.7314118 C107.621977,24.8910782 107.566035,24.9294375 107.417181,24.9218968 C107.183595,24.9104218 106.9487,24.9100939 106.715442,24.9222246 C106.567896,24.9297654 106.532891,24.8782918 106.534527,24.7360018 C106.541397,24.0622554 106.537798,23.3881811 106.537798,22.7141068 L106.537798,18.1424668 Z" id="Fill-18"></path>
                        <path d="M91.4337515,12.2551033 C88.4586386,12.2551033 85.4828714,12.2567426 82.5084128,12.2508411 C82.331424,12.2505133 82.2774441,12.2839547 82.2790798,12.4724726 C82.2895487,13.6301361 82.2800613,14.7877997 82.2885672,15.9448076 C82.2898758,16.1093919 82.2509448,16.1575869 82.0854063,16.1497183 C81.7785385,16.1352926 81.4713436,16.1415219 81.1641486,16.1477511 C81.0548801,16.1493904 81.0130047,16.1231619 81.0130047,16.0025104 C81.0175849,14.383224 81.0188935,12.7645933 81.0123504,11.144979 C81.0116961,10.9374454 81.1451738,10.9954761 81.2469178,10.9954761 C84.127484,10.993509 87.0080503,10.9938369 89.8873079,10.9938369 C90.179781,10.9938369 90.4725813,10.9872797 90.7644002,10.9967876 C90.9207785,11.0017054 90.9531664,10.970559 90.8864276,10.8171219 C90.5105309,9.94567757 90.1048634,9.08734757 89.6677894,8.24475471 C89.5778228,8.07099043 89.5837116,8.00574686 89.792434,7.97001043 C90.0937403,7.918209 90.3914478,7.84280186 90.6868654,7.76149329 C90.803004,7.72969114 90.8510953,7.75591971 90.9063838,7.85788329 C91.4268813,8.81358686 91.928077,9.779454 92.3272014,10.7935161 C92.3880515,10.9462976 92.4596976,10.9984269 92.6252361,10.998099 C95.6291384,10.9925254 98.634022,10.9961319 101.638579,10.9899026 C101.837814,10.9885911 101.891794,11.0377697 101.890812,11.2407133 C101.881325,12.8081983 101.882633,14.3760111 101.889503,15.943824 C101.891139,16.1120147 101.847301,16.1559476 101.68438,16.1493904 C101.377839,16.136604 101.06999,16.138899 100.763449,16.1487347 C100.620811,16.1529969 100.580899,16.1116869 100.58188,15.9657904 C100.588096,14.8228804 100.585152,13.6802983 100.585152,12.5373883 C100.585152,12.2551033 100.585152,12.2551033 100.293333,12.2551033 L91.4337515,12.2551033 Z" id="Fill-20"></path>
                    </g>
                </g>
            </g>
        </g>
    </g>
</svg>